<?xml version="1.0" encoding="utf-8"?>
<!-- Generator: Adobe Illustrator 19.2.1, SVG Export Plug-In . SVG Version: 6.00 Build 0)  -->
<!DOCTYPE svg PUBLIC "-//W3C//DTD SVG 1.1//EN" "http://www.w3.org/Graphics/SVG/1.1/DTD/svg11.dtd">
<svg version="1.1" id="mnemonic" xmlns="http://www.w3.org/2000/svg" xmlns:xlink="http://www.w3.org/1999/xlink" x="0px" y="0px"
	 viewBox="0 0 240 234" enable-background="new 0 0 240 234" xml:space="preserve">
<g>
	<rect x="10" y="10" fill-rule="evenodd" clip-rule="evenodd" fill="#001434" width="220" height="214"/>
</g>
<g>
	<path fill-rule="evenodd" clip-rule="evenodd" fill="#5DA5FF" d="M0,0v234h240V0H0z M10,10h220v214H10V10z"/>
</g>
<path fill="#5DA5FF" d="M192,175H48c-1.1,0-2-0.9-2-2s0.9-2,2-2h144c1.1,0,2,0.9,2,2S193.1,175,192,175z"/>
<path fill="#CADFFE" d="M171.9,156.2c-2.6,0-4.1-1.2-4.9-2.2c-3.3-4.3-0.2-13.9,2.4-22.3c0.1-0.3,0.2-0.7,0.3-1
	c-6.2,9.8-16.8,24.7-28.7,24.7c-0.1,0-0.2,0-0.3,0c-2.6,0-6-1.3-8.1-6.8c-0.7-1.8-1.1-3.9-1.4-6.4c-6.9,7.3-15.5,14-23.7,13.7
	c-1.1,0-2-1-1.9-2.1c0-1.1,1-2,2.1-1.9c6.9,0.2,15.3-6.1,23.3-15.3c-0.2-21.2,9.2-55.3,19.5-64.6c3.7-3.3,6.7-2.9,8.7-1.9
	c4.3,2.2,5.3,8.2,2.8,18c-3.2,12.6-11.7,29.5-21.6,43.1c-1.5,2-3.3,4.4-5.3,6.8c0.1,3.7,0.6,6.8,1.5,9.1c1.5,4.1,3.7,4.2,4.4,4.2
	c0.1,0,0.1,0,0.2,0c11.3,0,22.7-18.5,27.6-26.4c2.8-4.6,3.6-5.8,5.4-5c2.9,1.3,1.7,5.2-0.8,12.9c-1.9,6-5.1,15.9-3.1,18.6
	c0.1,0.2,0.5,0.7,1.9,0.6c2.6-0.1,10.2-5.6,13.1-9.6c0.7-0.9,1.9-1.1,2.8-0.4s1.1,1.9,0.4,2.8c-2.8,3.8-11.4,11-16.1,11.2
	C172.1,156.2,172,156.2,171.9,156.2z M156.3,73.5c-0.7,0-1.7,0.3-3.1,1.6c-5.1,4.6-10.9,17.9-14.7,34c-2,8.3-3.1,16.1-3.5,22.7
	c10.5-13.6,19.6-31.3,23-44.5c1.8-7.3,1.6-12.3-0.7-13.4C157.1,73.7,156.8,73.5,156.3,73.5z"/>
<polygon fill="#5DA5FF" points="100.5,114.2 91,104.7 73.9,121.7 56.9,104.7 47.4,114.2 64,131.2 48.6,147 58.1,156.6 73.9,140.8 
	89.8,156.6 99.3,147 83.5,131.2 "/>
</svg>