<?xml version="1.0" standalone="no"?>
<!DOCTYPE svg PUBLIC "-//W3C//DTD SVG 20010904//EN"
        "http://www.w3.org/TR/2001/REC-SVG-20010904/DTD/svg10.dtd">
<svg version="1.0" xmlns="http://www.w3.org/2000/svg"
     width="619.000000pt" height="264.000000pt" viewBox="0 0 619.000000 264.000000"
     preserveAspectRatio="xMidYMid meet">

    <g transform="translate(0.000000,264.000000) scale(0.100000,-0.100000)"
       fill="#38C72A" stroke="none">
        <path d="M725 2384 c-11 -3 -51 -12 -90 -20 -38 -9 -112 -36 -163 -60 -112
-54 -201 -137 -247 -229 -28 -56 -30 -68 -30 -175 0 -103 3 -121 26 -170 88
-188 263 -264 699 -304 264 -25 310 -47 318 -154 3 -53 2 -60 -32 -98 -67 -78
-216 -122 -375 -111 -160 12 -292 62 -411 155 l-65 51 -117 -116 c-64 -64
-115 -120 -112 -124 2 -4 42 -36 87 -70 169 -128 381 -205 598 -216 413 -21
711 143 769 423 7 31 10 97 8 148 -3 79 -7 100 -36 158 -77 158 -245 235 -557
258 -353 26 -474 78 -462 198 11 108 157 169 382 159 141 -7 233 -30 353 -89
l84 -41 104 104 c57 57 104 107 104 111 0 12 -145 97 -220 128 -142 59 -257
81 -435 85 -88 2 -169 2 -180 -1z"/>
        <path d="M2080 2371 c-108 -23 -224 -69 -321 -125 -119 -70 -119 -61 2 -182
57 -57 107 -104 110 -104 4 0 33 16 65 35 33 20 95 48 139 62 69 23 98 26 215
27 158 1 225 -15 291 -72 58 -50 69 -82 69 -206 l0 -104 -317 -5 c-347 -4
-379 -9 -500 -67 -77 -38 -153 -119 -184 -198 -20 -48 -23 -76 -24 -182 0
-141 19 -218 77 -304 91 -139 286 -214 523 -203 168 8 312 63 395 152 l25 27
5 -74 5 -73 178 -3 177 -2 0 572 c0 628 -2 654 -59 765 -95 190 -315 284 -656
282 -85 0 -159 -7 -215 -18z m576 -1028 c-12 -150 -40 -202 -131 -248 -57 -28
-67 -30 -205 -33 -281 -7 -388 41 -398 177 -5 68 22 116 81 144 59 30 116 35
396 36 l264 1 -7 -77z"/>
        <path d="M3483 2375 c-198 -43 -353 -191 -409 -392 -22 -78 -32 -570 -14 -711
21 -167 64 -264 156 -355 222 -219 617 -234 842 -32 27 25 53 45 57 45 17 0
-2 -175 -25 -227 -53 -124 -210 -213 -375 -213 -77 0 -150 21 -241 70 l-71 38
-117 -117 c-64 -64 -116 -119 -116 -122 0 -11 116 -88 186 -122 208 -105 418
-120 638 -46 214 71 356 200 429 387 57 147 57 154 57 1003 l0 779 -180 0
-180 0 0 -85 0 -86 -65 56 c-77 65 -162 110 -247 130 -77 18 -241 18 -325 0z
m442 -323 c65 -30 138 -102 167 -166 21 -49 22 -63 23 -311 l0 -260 -28 -57
c-33 -67 -90 -121 -166 -157 -50 -23 -68 -26 -161 -26 -87 1 -115 5 -165 24
-73 29 -164 116 -184 176 -18 54 -27 467 -12 550 20 105 100 194 212 235 77
28 243 24 314 -8z"/>
        <path d="M5090 2375 c-292 -59 -489 -266 -556 -585 -13 -61 -18 -127 -18 -235
1 -184 22 -285 91 -424 219 -442 889 -526 1286 -161 l51 47 -98 101 c-55 56
-103 102 -109 102 -5 0 -30 -15 -56 -34 -111 -81 -224 -116 -372 -116 -141 0
-242 33 -327 105 -46 40 -97 136 -106 203 l-6 42 569 0 569 0 8 67 c12 112 -2
328 -26 412 -95 331 -335 493 -725 490 -60 0 -139 -7 -175 -14z m359 -294
c163 -51 261 -166 278 -328 l6 -53 -432 0 -431 0 4 23 c3 12 7 42 11 66 12 93
84 196 173 248 107 63 270 82 391 44z"/>
    </g>
</svg>